<svg xmlns="http://www.w3.org/2000/svg" viewBox="0 0 1200 800" width="1200" height="800"><g transform="translate(427.0 278.0) rotate(0.0 173.0 122.0) scale(1.0 1.0)"><svg width="346" height="244" viewBox="0 0 346 244"><clipPath id="a"><path d="M0 0h346v244H0z"/></clipPath><clipPath id="b"><path d="M59.5 67.7h200v135h-200z"/></clipPath><clipPath id="c"><path d="M175.7 8.2h9v107h-9z"/></clipPath><clipPath id="d"><path d="M164.6 14.5h9v107h-9z"/></clipPath><clipPath id="e"><path d="M153.5 8.2h9v107h-9z"/></clipPath><clipPath id="f"><path d="M142.4 14.5h9v107h-9z"/></clipPath><clipPath id="g"><path d="M131.2 8.2h9v107h-9z"/></clipPath><clipPath id="h"><path d="M120.1 14.5h9v107h-9z"/></clipPath><clipPath id="i"><path d="M109 8.2h9v107h-9z"/></clipPath><clipPath id="j"><path d="M97.9 14.5h9v107h-9z"/></clipPath><clipPath id="k"><path d="M86.7 8.2h9v107h-9z"/></clipPath><clipPath id="l"><path d="M75.6 14.5h9v107h-9z"/></clipPath><clipPath id="m"><path d="M64.5 8.2h9v107h-9z"/></clipPath><clipPath id="n"><path d="M53.4 14.5h9v107h-9z"/></clipPath><clipPath id="o"><path d="M42.2 8.2h9v107h-9z"/></clipPath><g clip-path="url(#a)"><path d="M122.915 158.683h53.4v84.223h-53.4z" fill="#91a0e2"/><path d="M176.299 200.805v9.12l-53.383-3.514v-5.623h53.383z"/><path d="M102.104 236.88h95.006v6.035h-95.006z" fill="#91a0e2"/><path d="M292.614 60.039v132.944a5.246 5.246 0 0 1-5.246 5.246H11.846a5.246 5.246 0 0 1-5.246-5.246V60.039a5.246 5.246 0 0 1 5.246-5.246h275.522c2.897.017 5.246 2.366 5.246 5.246z" fill="#f3ead9"/><g fill="#fdfbf6" mask="url(#b)"><path d="M290.474 45.827 179.078 231.555l-79.68 5.178L255.673 45.21zm-112.132 1.971L42.054 222.23l-116.453.788L81.895 42.81z"/></g><path d="M287.368 200.8H11.846c-4.303 0-7.817-3.498-7.817-7.818V60.038c0-4.303 3.497-7.817 7.817-7.817h275.522c4.303 0 7.817 3.497 7.817 7.817v132.944c0 4.32-3.514 7.817-7.817 7.817zM11.846 57.38a2.678 2.678 0 0 0-2.674 2.674V193c0 1.475 1.2 2.675 2.674 2.675h275.522c1.474 0 2.674-1.2 2.674-2.675V60.055c0-1.474-1.2-2.674-2.674-2.674z" fill="#91a0e2"/><path d="M243.443 101.638v66.549a5.915 5.915 0 0 1-5.914 5.914H106.968a5.915 5.915 0 0 1-5.915-5.914v-66.55a5.915 5.915 0 0 1 5.915-5.914h130.56a5.915 5.915 0 0 1 5.915 5.915z" fill="#174D99"/><path d="m223.96 95.723-40.543 78.378h-44.83l55.304-78.378z" fill="#2757AD"/><g mask="url(#c)"><g clip-path="url(#b)" fill="#91a0e2" transform="matrix(1.00000787 0 0 1.00000787 59.499786 67.749153)"><g clip-path="url(#c)" transform="translate(175.727005 8.25)"><path d="M7.66 101.957c0 1.741-1.417 3.159-3.158 3.159s-3.16-1.418-3.16-3.16 1.418-3.158 3.16-3.158 3.159 1.417 3.159 3.159zm0-9.355c0 1.741-1.417 3.159-3.158 3.159s-3.16-1.418-3.16-3.16 1.418-3.158 3.16-3.158S7.66 90.86 7.66 92.602zm-.219-10.833c0 1.741-1.417 3.159-3.159 3.159s-3.159-1.418-3.159-3.16 1.418-3.158 3.16-3.158 3.158 1.417 3.158 3.159zm0-9.355c0 1.741-1.417 3.159-3.159 3.159s-3.159-1.418-3.159-3.16 1.418-3.158 3.16-3.158 3.158 1.417 3.158 3.159zm0-9.356c0 1.742-1.417 3.16-3.159 3.16s-3.159-1.418-3.159-3.16S2.541 59.9 4.283 59.9s3.158 1.418 3.158 3.16zm0-9.355c0 1.741-1.417 3.159-3.159 3.159s-3.159-1.418-3.159-3.159 1.418-3.159 3.16-3.159 3.158 1.417 3.158 3.159zm.021-9.607c0 1.741-1.417 3.159-3.159 3.159s-3.159-1.418-3.159-3.16 1.418-3.158 3.16-3.158 3.158 1.417 3.158 3.159zm0-9.356c0 1.742-1.417 3.16-3.159 3.16s-3.159-1.418-3.159-3.16 1.418-3.159 3.16-3.159S7.461 33 7.461 34.741zm0-9.355c0 1.742-1.417 3.16-3.159 3.16s-3.159-1.418-3.159-3.16 1.418-3.159 3.16-3.159 3.158 1.418 3.158 3.16zm0-9.355c0 1.741-1.417 3.159-3.159 3.159s-3.159-1.418-3.159-3.16 1.418-3.158 3.16-3.158 3.158 1.417 3.158 3.159zm.231-10.833c0 1.742-1.418 3.159-3.16 3.159S1.376 6.939 1.376 5.197s1.417-3.159 3.159-3.159 3.159 1.418 3.159 3.159z"/></g><g clip-path="url(#d)" transform="translate(164.602005 14.5)"><path d="M8.55 101.957c0 2.231-1.817 4.047-4.048 4.047s-4.047-1.816-4.047-4.047 1.816-4.048 4.047-4.048 4.047 1.817 4.047 4.048zm-.19-9.355c0 2.126-1.731 3.858-3.858 3.858S.644 94.728.644 92.602s1.731-3.858 3.858-3.858 3.858 1.73 3.858 3.858zm-.436-10.833c0 2.007-1.634 3.641-3.642 3.641S.641 83.776.641 81.77s1.634-3.642 3.641-3.642 3.642 1.634 3.642 3.642zm-.21-9.355c0 1.892-1.54 3.432-3.432 3.432S.85 74.306.85 72.414s1.54-3.433 3.432-3.433 3.432 1.54 3.432 3.433zm-.169-9.356c0 1.8-1.464 3.263-3.263 3.263S1.02 64.857 1.02 63.058s1.464-3.263 3.263-3.263 3.263 1.464 3.263 3.263zm-.095-9.355c0 1.747-1.421 3.168-3.168 3.168s-3.168-1.421-3.168-3.168 1.422-3.168 3.168-3.168 3.169 1.421 3.169 3.168zm.012-9.607c0 1.741-1.417 3.159-3.159 3.159s-3.159-1.418-3.159-3.16 1.418-3.158 3.16-3.158 3.158 1.417 3.158 3.159zm0-9.356c0 1.742-1.417 3.16-3.159 3.16s-3.159-1.418-3.159-3.16 1.418-3.159 3.16-3.159S7.461 33 7.461 34.741zm0-9.355c0 1.742-1.417 3.16-3.159 3.16s-3.159-1.418-3.159-3.16 1.418-3.159 3.16-3.159 3.158 1.418 3.158 3.16zm0-9.355c0 1.741-1.417 3.159-3.159 3.159s-3.159-1.418-3.159-3.16 1.418-3.158 3.16-3.158 3.158 1.417 3.158 3.159zm.231-10.833c0 1.742-1.418 3.159-3.16 3.159S1.376 6.939 1.376 5.197s1.417-3.159 3.159-3.159 3.159 1.418 3.159 3.159z"/></g><g clip-path="url(#e)" transform="translate(153.477997 8.25)"><path d="M7.66 101.957c0 1.741-1.417 3.159-3.158 3.159s-3.16-1.418-3.16-3.16 1.418-3.158 3.16-3.158 3.159 1.417 3.159 3.159zm0-9.355c0 1.741-1.417 3.159-3.158 3.159s-3.16-1.418-3.16-3.16 1.418-3.158 3.16-3.158S7.66 90.86 7.66 92.602zm-.219-10.833c0 1.741-1.417 3.159-3.159 3.159s-3.159-1.418-3.159-3.16 1.418-3.158 3.16-3.158 3.158 1.417 3.158 3.159zm0-9.355c0 1.741-1.417 3.159-3.159 3.159s-3.159-1.418-3.159-3.16 1.418-3.158 3.16-3.158 3.158 1.417 3.158 3.159zm0-9.356c0 1.742-1.417 3.16-3.159 3.16s-3.159-1.418-3.159-3.16S2.541 59.9 4.283 59.9s3.158 1.418 3.158 3.16zm0-9.355c0 1.741-1.417 3.159-3.159 3.159s-3.159-1.418-3.159-3.159 1.418-3.159 3.16-3.159 3.158 1.417 3.158 3.159zm.021-9.607c0 1.741-1.417 3.159-3.159 3.159s-3.159-1.418-3.159-3.16 1.418-3.158 3.16-3.158 3.158 1.417 3.158 3.159zm0-9.356c0 1.742-1.417 3.16-3.159 3.16s-3.159-1.418-3.159-3.16 1.418-3.159 3.16-3.159S7.461 33 7.461 34.741zm0-9.355c0 1.742-1.417 3.16-3.159 3.16s-3.159-1.418-3.159-3.16 1.418-3.159 3.16-3.159 3.158 1.418 3.158 3.16zm0-9.355c0 1.741-1.417 3.159-3.159 3.159s-3.159-1.418-3.159-3.16 1.418-3.158 3.16-3.158 3.158 1.417 3.158 3.159zm.231-10.833c0 1.742-1.418 3.159-3.16 3.159S1.376 6.939 1.376 5.197s1.417-3.159 3.159-3.159 3.159 1.418 3.159 3.159z"/></g><g clip-path="url(#f)" transform="translate(142.352997 14.5)"><path d="M7.66 101.957c0 1.741-1.417 3.159-3.158 3.159s-3.16-1.418-3.16-3.16 1.418-3.158 3.16-3.158 3.159 1.417 3.159 3.159zm0-9.355c0 1.741-1.417 3.159-3.158 3.159s-3.16-1.418-3.16-3.16 1.418-3.158 3.16-3.158S7.66 90.86 7.66 92.602zm-.219-10.833c0 1.741-1.417 3.159-3.159 3.159s-3.159-1.418-3.159-3.16 1.418-3.158 3.16-3.158 3.158 1.417 3.158 3.159zm0-9.355c0 1.741-1.417 3.159-3.159 3.159s-3.159-1.418-3.159-3.16 1.418-3.158 3.16-3.158 3.158 1.417 3.158 3.159zm0-9.356c0 1.742-1.417 3.16-3.159 3.16s-3.159-1.418-3.159-3.16S2.541 59.9 4.283 59.9s3.158 1.418 3.158 3.16zm0-9.355c0 1.741-1.417 3.159-3.159 3.159s-3.159-1.418-3.159-3.159 1.418-3.159 3.16-3.159 3.158 1.417 3.158 3.159zm.021-9.607c0 1.741-1.417 3.159-3.159 3.159s-3.159-1.418-3.159-3.16 1.418-3.158 3.16-3.158 3.158 1.417 3.158 3.159zm0-9.356c0 1.742-1.417 3.16-3.159 3.16s-3.159-1.418-3.159-3.16 1.418-3.159 3.16-3.159S7.461 33 7.461 34.741zm0-9.355c0 1.742-1.417 3.16-3.159 3.16s-3.159-1.418-3.159-3.16 1.418-3.159 3.16-3.159 3.158 1.418 3.158 3.16zm.148-9.355c0 1.823-1.484 3.306-3.307 3.306S.997 17.853.997 16.03s1.483-3.307 3.306-3.307S7.61 14.207 7.61 16.03zm.656-10.833c0 2.057-1.675 3.732-3.732 3.732S.802 7.254.802 5.197s1.674-3.732 3.732-3.732S8.266 3.14 8.266 5.197z"/></g><g clip-path="url(#g)" transform="translate(131.227997 8.25)"><path d="M7.748 101.957c0 1.79-1.457 3.246-3.246 3.246s-3.246-1.457-3.246-3.246 1.456-3.246 3.246-3.246 3.246 1.456 3.246 3.246zm.393-9.355c0 2.006-1.633 3.639-3.64 3.639S.864 94.608.864 92.6s1.633-3.639 3.639-3.639 3.639 1.633 3.639 3.64zm.206-10.833c0 2.24-1.824 4.064-4.065 4.064S.218 84.01.218 81.77s1.824-4.065 4.064-4.065 4.065 1.824 4.065 4.065zm.145-9.355c0 2.32-1.889 4.21-4.21 4.21s-4.21-1.89-4.21-4.21 1.89-4.21 4.21-4.21 4.21 1.889 4.21 4.21zm-.076-9.356c0 2.28-1.855 4.134-4.134 4.134S.148 65.337.148 63.058s1.855-4.134 4.134-4.134 4.134 1.855 4.134 4.134zm-.156-9.355c0 2.192-1.785 3.977-3.978 3.977S.305 55.895.305 53.703s1.785-3.977 3.977-3.977 3.977 1.785 3.977 3.977zm-.184-9.607c0 2.08-1.693 3.772-3.773 3.772S.53 46.176.53 44.096s1.693-3.773 3.773-3.773 3.773 1.693 3.773 3.773zm-.218-9.356c0 1.96-1.595 3.555-3.555 3.555S.748 36.7.748 34.74s1.595-3.555 3.555-3.555 3.555 1.595 3.555 3.555zm-.198-9.355c0 1.851-1.506 3.358-3.357 3.358S.945 27.236.945 25.385s1.507-3.358 3.358-3.358 3.358 1.507 3.358 3.358zm-.143-9.355c0 1.772-1.442 3.214-3.214 3.214S1.09 17.802 1.09 16.03s1.442-3.215 3.214-3.215 3.214 1.443 3.214 3.215zm.176-10.833c0 1.742-1.418 3.159-3.16 3.159S1.376 6.939 1.376 5.197s1.417-3.159 3.159-3.159 3.159 1.418 3.159 3.159z"/></g><g clip-path="url(#h)" transform="translate(120.103996 14.5)"><path d="M7.765 101.957c0 1.799-1.464 3.263-3.263 3.263s-3.263-1.464-3.263-3.263 1.464-3.263 3.263-3.263 3.263 1.464 3.263 3.263zm-.095-9.355c0 1.746-1.421 3.168-3.168 3.168s-3.169-1.422-3.169-3.168 1.422-3.169 3.169-3.169 3.168 1.422 3.168 3.169zm-.229-10.833c0 1.741-1.417 3.159-3.159 3.159s-3.159-1.418-3.159-3.16 1.418-3.158 3.16-3.158 3.158 1.417 3.158 3.159zm0-9.355c0 1.741-1.417 3.159-3.159 3.159s-3.159-1.418-3.159-3.16 1.418-3.158 3.16-3.158 3.158 1.417 3.158 3.159zm0-9.356c0 1.742-1.417 3.16-3.159 3.16s-3.159-1.418-3.159-3.16S2.541 59.9 4.283 59.9s3.158 1.418 3.158 3.16zm0-9.355c0 1.741-1.417 3.159-3.159 3.159s-3.159-1.418-3.159-3.159 1.418-3.159 3.16-3.159 3.158 1.417 3.158 3.159zm.021-9.607c0 1.741-1.417 3.159-3.159 3.159s-3.159-1.418-3.159-3.16 1.418-3.158 3.16-3.158 3.158 1.417 3.158 3.159zm0-9.356c0 1.742-1.417 3.16-3.159 3.16s-3.159-1.418-3.159-3.16 1.418-3.159 3.16-3.159S7.461 33 7.461 34.741zm0-9.355c0 1.742-1.417 3.16-3.159 3.16s-3.159-1.418-3.159-3.16 1.418-3.159 3.16-3.159 3.158 1.418 3.158 3.16zm0-9.355c0 1.741-1.417 3.159-3.159 3.159s-3.159-1.418-3.159-3.16 1.418-3.158 3.16-3.158 3.158 1.417 3.158 3.159zm.231-10.833c0 1.742-1.418 3.159-3.16 3.159S1.376 6.939 1.376 5.197s1.417-3.159 3.159-3.159 3.159 1.418 3.159 3.159z"/></g><g clip-path="url(#i)" transform="translate(108.978996 8.25)"><path d="M7.66 101.957c0 1.741-1.417 3.159-3.158 3.159s-3.16-1.418-3.16-3.16 1.418-3.158 3.16-3.158 3.159 1.417 3.159 3.159zm.088-9.355c0 1.789-1.457 3.245-3.246 3.245s-3.246-1.456-3.246-3.245 1.456-3.246 3.246-3.246 3.246 1.456 3.246 3.246zm.173-10.833c0 2.006-1.633 3.639-3.639 3.639S.643 83.775.643 81.768s1.633-3.638 3.64-3.638 3.638 1.633 3.638 3.639zm.426-9.355c0 2.24-1.824 4.064-4.065 4.064S.218 74.654.218 72.414s1.824-4.065 4.064-4.065 4.065 1.824 4.065 4.065zm.145-9.356c0 2.32-1.889 4.21-4.21 4.21s-4.21-1.89-4.21-4.21 1.89-4.21 4.21-4.21 4.21 1.89 4.21 4.21zm-.076-9.355c0 2.279-1.855 4.134-4.134 4.134S.148 55.982.148 53.703s1.855-4.134 4.134-4.134 4.134 1.855 4.134 4.134zm-.136-9.607c0 2.192-1.784 3.977-3.977 3.977S.326 46.288.326 44.096s1.785-3.977 3.977-3.977 3.977 1.784 3.977 3.977zm-.204-9.356c0 2.08-1.693 3.773-3.773 3.773S.53 36.82.53 34.74s1.693-3.773 3.773-3.773 3.773 1.693 3.773 3.773zm-.218-9.355c0 1.96-1.595 3.555-3.555 3.555S.748 27.345.748 25.385s1.595-3.555 3.555-3.555 3.555 1.595 3.555 3.555zM7.66 16.03c0 1.85-1.506 3.357-3.357 3.357S.945 17.881.945 16.03s1.507-3.358 3.358-3.358 3.358 1.507 3.358 3.358zm.088-10.833c0 1.772-1.442 3.214-3.214 3.214S1.319 6.97 1.319 5.197s1.443-3.214 3.215-3.214 3.214 1.442 3.214 3.214z"/></g><g clip-path="url(#j)" transform="translate(97.855003 14.5)"><path d="M7.66 101.957c0 1.741-1.417 3.159-3.158 3.159s-3.16-1.418-3.16-3.16 1.418-3.158 3.16-3.158 3.159 1.417 3.159 3.159zm0-9.355c0 1.741-1.417 3.159-3.158 3.159s-3.16-1.418-3.16-3.16 1.418-3.158 3.16-3.158S7.66 90.86 7.66 92.602zm-.219-10.833c0 1.741-1.417 3.159-3.159 3.159s-3.159-1.418-3.159-3.16 1.418-3.158 3.16-3.158 3.158 1.417 3.158 3.159zm0-9.355c0 1.741-1.417 3.159-3.159 3.159s-3.159-1.418-3.159-3.16 1.418-3.158 3.16-3.158 3.158 1.417 3.158 3.159zm0-9.356c0 1.742-1.417 3.16-3.159 3.16s-3.159-1.418-3.159-3.16S2.541 59.9 4.283 59.9s3.158 1.418 3.158 3.16zm0-9.355c0 1.741-1.417 3.159-3.159 3.159s-3.159-1.418-3.159-3.159 1.418-3.159 3.16-3.159 3.158 1.417 3.158 3.159zm.021-9.607c0 1.741-1.417 3.159-3.159 3.159s-3.159-1.418-3.159-3.16 1.418-3.158 3.16-3.158 3.158 1.417 3.158 3.159zm0-9.356c0 1.742-1.417 3.16-3.159 3.16s-3.159-1.418-3.159-3.16 1.418-3.159 3.16-3.159S7.461 33 7.461 34.741zm0-9.355c0 1.742-1.417 3.16-3.159 3.16s-3.159-1.418-3.159-3.16 1.418-3.159 3.16-3.159 3.158 1.418 3.158 3.16zm0-9.355c0 1.741-1.417 3.159-3.159 3.159s-3.159-1.418-3.159-3.16 1.418-3.158 3.16-3.158 3.158 1.417 3.158 3.159zm.231-10.833c0 1.742-1.418 3.159-3.16 3.159S1.376 6.939 1.376 5.197s1.417-3.159 3.159-3.159 3.159 1.418 3.159 3.159z"/></g><g clip-path="url(#k)" transform="translate(86.730003 8.25)"><path d="M8.566 101.957c0 2.24-1.823 4.064-4.064 4.064s-4.065-1.824-4.065-4.064 1.824-4.065 4.065-4.065 4.064 1.824 4.064 4.065zm.145-9.355c0 2.32-1.888 4.21-4.21 4.21s-4.209-1.89-4.209-4.21 1.89-4.21 4.21-4.21 4.21 1.889 4.21 4.21zm-.295-10.833c0 2.279-1.855 4.134-4.134 4.134S.148 84.048.148 81.769s1.855-4.134 4.134-4.134 4.134 1.855 4.134 4.134zm-.156-9.355c0 2.192-1.785 3.977-3.978 3.977S.305 74.606.305 72.414s1.785-3.977 3.977-3.977S8.26 70.22 8.26 72.414zm-.205-9.356c0 2.08-1.693 3.773-3.773 3.773S.51 65.138.51 63.058s1.693-3.773 3.773-3.773 3.773 1.693 3.773 3.773zm-.218-9.355c0 1.96-1.595 3.555-3.555 3.555S.727 55.663.727 53.703s1.595-3.555 3.555-3.555 3.555 1.595 3.555 3.555zm-.177-9.607c0 1.85-1.506 3.357-3.357 3.357S.945 45.947.945 44.096s1.507-3.358 3.358-3.358 3.358 1.507 3.358 3.358zm-.143-9.356c0 1.772-1.442 3.215-3.214 3.215S1.09 36.512 1.09 34.74s1.442-3.214 3.214-3.214 3.214 1.442 3.214 3.214zm-.055-9.355c0 1.742-1.417 3.16-3.159 3.16s-3.159-1.418-3.159-3.16 1.418-3.159 3.16-3.159 3.158 1.418 3.158 3.16zm0-9.355c0 1.741-1.417 3.159-3.159 3.159s-3.159-1.418-3.159-3.16 1.418-3.158 3.16-3.158 3.158 1.417 3.158 3.159zm.231-10.833c0 1.742-1.418 3.159-3.16 3.159S1.376 6.939 1.376 5.197s1.417-3.159 3.159-3.159 3.159 1.418 3.159 3.159z"/></g><g clip-path="url(#l)" transform="translate(75.605003 14.5)"><path d="M7.66 101.957c0 1.741-1.417 3.159-3.158 3.159s-3.16-1.418-3.16-3.16 1.418-3.158 3.16-3.158 3.159 1.417 3.159 3.159zm0-9.355c0 1.741-1.417 3.159-3.158 3.159s-3.16-1.418-3.16-3.16 1.418-3.158 3.16-3.158S7.66 90.86 7.66 92.602zm-.219-10.833c0 1.741-1.417 3.159-3.159 3.159s-3.159-1.418-3.159-3.16 1.418-3.158 3.16-3.158 3.158 1.417 3.158 3.159zm0-9.355c0 1.741-1.417 3.159-3.159 3.159s-3.159-1.418-3.159-3.16 1.418-3.158 3.16-3.158 3.158 1.417 3.158 3.159zm0-9.356c0 1.742-1.417 3.16-3.159 3.16s-3.159-1.418-3.159-3.16S2.541 59.9 4.283 59.9s3.158 1.418 3.158 3.16zm0-9.355c0 1.741-1.417 3.159-3.159 3.159s-3.159-1.418-3.159-3.159 1.418-3.159 3.16-3.159 3.158 1.417 3.158 3.159zm.021-9.607c0 1.741-1.417 3.159-3.159 3.159s-3.159-1.418-3.159-3.16 1.418-3.158 3.16-3.158 3.158 1.417 3.158 3.159zm0-9.356c0 1.742-1.417 3.16-3.159 3.16s-3.159-1.418-3.159-3.16 1.418-3.159 3.16-3.159S7.461 33 7.461 34.741zm0-9.355c0 1.742-1.417 3.16-3.159 3.16s-3.159-1.418-3.159-3.16 1.418-3.159 3.16-3.159 3.158 1.418 3.158 3.16zm0-9.355c0 1.741-1.417 3.159-3.159 3.159s-3.159-1.418-3.159-3.16 1.418-3.158 3.16-3.158 3.158 1.417 3.158 3.159zm.231-10.833c0 1.742-1.418 3.159-3.16 3.159S1.376 6.939 1.376 5.197s1.417-3.159 3.159-3.159 3.159 1.418 3.159 3.159z"/></g><g clip-path="url(#m)" transform="translate(64.481003 8.25)"><path d="M8.318 101.957c0 2.103-1.713 3.816-3.816 3.816S.686 104.06.686 101.957s1.712-3.816 3.816-3.816 3.816 1.712 3.816 3.816zM8.1 92.602c0 1.983-1.615 3.598-3.598 3.598S.904 94.585.904 92.602s1.614-3.599 3.598-3.599S8.1 90.618 8.1 92.602zm-.424-10.833c0 1.87-1.523 3.394-3.394 3.394S.888 83.64.888 81.769s1.523-3.394 3.394-3.394 3.394 1.523 3.394 3.394zm-.156-9.355c0 1.784-1.453 3.237-3.238 3.237s-3.237-1.453-3.237-3.237 1.453-3.238 3.237-3.238S7.52 70.63 7.52 72.414zm-.076-9.356c0 1.743-1.419 3.162-3.162 3.162s-3.161-1.42-3.161-3.162 1.418-3.161 3.161-3.161 3.162 1.418 3.162 3.161zm-.003-9.355c0 1.741-1.417 3.159-3.159 3.159s-3.159-1.418-3.159-3.159 1.418-3.159 3.16-3.159 3.158 1.417 3.158 3.159zm.021-9.607c0 1.741-1.417 3.159-3.159 3.159s-3.159-1.418-3.159-3.16 1.418-3.158 3.16-3.158 3.158 1.417 3.158 3.159zm0-9.356c0 1.742-1.417 3.16-3.159 3.16s-3.159-1.418-3.159-3.16 1.418-3.159 3.16-3.159S7.461 33 7.461 34.741zm0-9.355c0 1.742-1.417 3.16-3.159 3.16s-3.159-1.418-3.159-3.16 1.418-3.159 3.16-3.159 3.158 1.418 3.158 3.16zm0-9.355c0 1.741-1.417 3.159-3.159 3.159s-3.159-1.418-3.159-3.16 1.418-3.158 3.16-3.158 3.158 1.417 3.158 3.159zm.231-10.833c0 1.742-1.418 3.159-3.16 3.159S1.376 6.939 1.376 5.197s1.417-3.159 3.159-3.159 3.159 1.418 3.159 3.159z"/></g><g clip-path="url(#n)" transform="translate(53.355999 14.5)"><path d="M7.66 101.957c0 1.741-1.417 3.159-3.158 3.159s-3.16-1.418-3.16-3.16 1.418-3.158 3.16-3.158 3.159 1.417 3.159 3.159zm0-9.355c0 1.741-1.417 3.159-3.158 3.159s-3.16-1.418-3.16-3.16 1.418-3.158 3.16-3.158S7.66 90.86 7.66 92.602zm-.219-10.833c0 1.741-1.417 3.159-3.159 3.159s-3.159-1.418-3.159-3.16 1.418-3.158 3.16-3.158 3.158 1.417 3.158 3.159zm0-9.355c0 1.741-1.417 3.159-3.159 3.159s-3.159-1.418-3.159-3.16 1.418-3.158 3.16-3.158 3.158 1.417 3.158 3.159zm0-9.356c0 1.742-1.417 3.16-3.159 3.16s-3.159-1.418-3.159-3.16S2.541 59.9 4.283 59.9s3.158 1.418 3.158 3.16zm0-9.355c0 1.741-1.417 3.159-3.159 3.159s-3.159-1.418-3.159-3.159 1.418-3.159 3.16-3.159 3.158 1.417 3.158 3.159zm.021-9.607c0 1.741-1.417 3.159-3.159 3.159s-3.159-1.418-3.159-3.16 1.418-3.158 3.16-3.158 3.158 1.417 3.158 3.159zm0-9.356c0 1.742-1.417 3.16-3.159 3.16s-3.159-1.418-3.159-3.16 1.418-3.159 3.16-3.159S7.461 33 7.461 34.741zm0-9.355c0 1.742-1.417 3.16-3.159 3.16s-3.159-1.418-3.159-3.16 1.418-3.159 3.16-3.159 3.158 1.418 3.158 3.16zm0-9.355c0 1.741-1.417 3.159-3.159 3.159s-3.159-1.418-3.159-3.16 1.418-3.158 3.16-3.158 3.158 1.417 3.158 3.159zm.231-10.833c0 1.742-1.418 3.159-3.16 3.159S1.376 6.939 1.376 5.197s1.417-3.159 3.159-3.159 3.159 1.418 3.159 3.159z"/></g><g clip-path="url(#o)" transform="translate(42.230999 8.25)"><path d="M7.66 101.957c0 1.741-1.417 3.159-3.158 3.159s-3.16-1.418-3.16-3.16 1.418-3.158 3.16-3.158 3.159 1.417 3.159 3.159zm0-9.355c0 1.741-1.417 3.159-3.158 3.159s-3.16-1.418-3.16-3.16 1.418-3.158 3.16-3.158S7.66 90.86 7.66 92.602zm-.219-10.833c0 1.741-1.417 3.159-3.159 3.159s-3.159-1.418-3.159-3.16 1.418-3.158 3.16-3.158 3.158 1.417 3.158 3.159zm0-9.355c0 1.741-1.417 3.159-3.159 3.159s-3.159-1.418-3.159-3.16 1.418-3.158 3.16-3.158 3.158 1.417 3.158 3.159zm0-9.356c0 1.742-1.417 3.16-3.159 3.16s-3.159-1.418-3.159-3.16S2.541 59.9 4.283 59.9s3.158 1.418 3.158 3.16zm0-9.355c0 1.741-1.417 3.159-3.159 3.159s-3.159-1.418-3.159-3.159 1.418-3.159 3.16-3.159 3.158 1.417 3.158 3.159zm.021-9.607c0 1.741-1.417 3.159-3.159 3.159s-3.159-1.418-3.159-3.16 1.418-3.158 3.16-3.158 3.158 1.417 3.158 3.159zm0-9.356c0 1.742-1.417 3.16-3.159 3.16s-3.159-1.418-3.159-3.16 1.418-3.159 3.16-3.159S7.461 33 7.461 34.741zm0-9.355c0 1.742-1.417 3.16-3.159 3.16s-3.159-1.418-3.159-3.16 1.418-3.159 3.16-3.159 3.158 1.418 3.158 3.16zm0-9.355c0 1.741-1.417 3.159-3.159 3.159s-3.159-1.418-3.159-3.16 1.418-3.158 3.16-3.158 3.158 1.417 3.158 3.159zm.231-10.833c0 1.742-1.418 3.159-3.16 3.159S1.376 6.939 1.376 5.197s1.417-3.159 3.159-3.159 3.159 1.418 3.159 3.159z"/></g></g></g><path d="M29.965 101.116V41.578a5.246 5.246 0 0 1 5.246-5.246h91.663a5.246 5.246 0 0 1 5.246 5.246v59.538a5.246 5.246 0 0 1-5.246 5.245H35.211a5.246 5.246 0 0 1-5.246-5.245z" fill="#fff"/><g><path d="M126.857 107.99H35.194c-3.789 0-6.875-3.086-6.875-6.874V41.578c0-3.789 3.086-6.874 6.875-6.874h91.663c3.789 0 6.875 3.085 6.875 6.874v59.538c0 3.788-3.086 6.874-6.875 6.874zM35.211 36.435a5.165 5.165 0 0 0-5.16 5.16v59.538a5.165 5.165 0 0 0 5.16 5.16h91.663a5.165 5.165 0 0 0 5.16-5.16V41.595a5.165 5.165 0 0 0-5.16-5.16z" fill="#174D99"/></g><g><path d="M63.906 98.096c-7.152 0-13.856-2.775-18.91-7.83s-7.831-11.759-7.831-18.91 2.776-13.856 7.83-18.91c8.643-8.644 22.026-10.34 32.524-4.11.412.242.545.764.303 1.176s-.764.545-1.176.303c-9.831-5.83-22.34-4.255-30.438 3.842-4.728 4.728-7.334 11.02-7.322 17.698s2.594 12.971 7.322 17.699 11.019 7.333 17.698 7.321 12.97-2.594 17.698-7.321c5.636-5.637 8.267-13.723 7.018-21.614-.072-.46.255-.909.716-.982s.909.255.981.715a26.83 26.83 0 0 1-7.503 23.093c-5.055 5.055-11.758 7.83-18.91 7.83z" fill="#4A69FF"/></g><path d="M91.96 71.412c5.828-1.131-5.709-23.503-9.618-19.543l-18.754 19.8z" fill="#fff"/><path d="M89.278 59.63c4.817-3.463-14.983-18.994-16.87-13.766l-8.828 25.8z" fill="#fff"/><g><path d="M89.791 72.207a.87.87 0 0 1-.857-.771l-24.995.771a.86.86 0 0 1-.891-.822.86.86 0 0 1 .823-.892l25.114-.754c.926 0 1.646.737 1.646 1.628.017.463-.36.84-.84.84z" fill="#4A69FF"/></g><path d="M38.157 70.117a29.66 29.66 0 0 0-.034 1.234c0 14.212 11.64 25.903 25.783 25.903 8.589 0 16.252-4.32 20.949-10.885L63.906 71.35 38.86 65.266a26.476 26.476 0 0 0-.703 4.851" fill="#4A69FF"/><g><path d="M63.907 72.22a.843.843 0 0 1-.789-1.149l8.743-23.418c-.394-.188-.6-.634-.445-1.045a.85.85 0 0 1 1.08-.532c.188.069.754.257 1.011.789.257.514.103.994.034 1.2l-8.828 23.589a.885.885 0 0 1-.806.565z" fill="#4A69FF"/></g><g><path d="M98.586 77.2V13.36a5.246 5.246 0 0 1 5.246-5.247h117.035a5.246 5.246 0 0 1 5.246 5.246V77.2a5.246 5.246 0 0 1-5.246 5.246H103.832a5.246 5.246 0 0 1-5.246-5.245z" fill="#fff"/><g><path d="M220.884 84.074H103.85c-3.789 0-6.874-3.086-6.874-6.874V13.36c0-3.79 3.085-6.875 6.874-6.875h117.035c3.789 0 6.875 3.086 6.875 6.874V77.2c0 3.79-3.086 6.875-6.875 6.875zM103.832 8.199a5.165 5.165 0 0 0-5.16 5.16V77.2a5.165 5.165 0 0 0 5.16 5.16h117.035a5.165 5.165 0 0 0 5.16-5.16V13.36a5.165 5.165 0 0 0-5.16-5.16z" fill="#fdc93a"/></g><path d="m214.929 66.185-104.195.052c-1.732 0-3.155 1.405-3.155 3.154s1.406 3.154 3.155 3.154l104.195-.051c1.731 0 3.154-1.406 3.154-3.155s-1.406-3.154-3.154-3.154z" fill="#f3ead9"/><path d="M215.868 62.823h-86.606c-.48 0-.857-.377-.857-.857s.377-.857.857-.857h86.624c.48 0 .857.377.857.857s-.395.857-.875.857z" fill="#4A69FF"/></g><path d="M211.954 16.886c1.646 0 2.983 1.337 2.983 2.983s-1.337 2.983-2.983 2.983-2.983-1.337-2.983-2.983 1.337-2.983 2.983-2.983zm0-1.714c-2.589 0-4.697 2.108-4.697 4.697s2.108 4.697 4.697 4.697 4.697-2.108 4.697-4.697-2.108-4.697-4.697-4.697z" fill="#4A69FF"/><g><path d="M136.973 62.433a.888.888 0 0 1-.6-.24.864.864 0 0 1-.017-1.217l19.149-19.869a.864.864 0 0 1 1.131-.085l11.315 8.588 15.274-20.76c.137-.188.343-.308.566-.343s.463.017.634.155l7.389 5.468 15.84-13.389a.846.846 0 0 1 1.2.103.846.846 0 0 1-.103 1.2l-16.355 13.818a.851.851 0 0 1-1.062.034l-7.235-5.366-15.274 20.795a.839.839 0 0 1-1.2.171l-11.4-8.64-18.635 19.32a.87.87 0 0 1-.617.257z" fill="#4A69FF"/></g><g fill="#fdc93a"><path d="M130.63 41.899c-.856-.995-1.834-1.715-2.914-2.16-1.08-.429-2.64-.926-4.645-1.492l-2.315-.754c-.703-.309-1.234-.669-1.611-1.08s-.566-.926-.566-1.526c0-.703.189-1.251.583-1.646s.926-.651 1.594-.771l2.315.189c1.08.394 1.697 1.234 1.851 2.537h6.634c-.171-2.263-.994-4.046-2.468-5.332s-3.48-2.023-6.017-2.211h-2.315c-2.554.171-4.663.926-6.291 2.246-1.629 1.337-2.452 3.085-2.452 5.297 0 1.765.429 3.154 1.269 4.166.857.994 1.834 1.73 2.966 2.194s2.623.926 4.508 1.406l2.315.685c.771.292 1.354.635 1.765 1.029.395.394.6.908.6 1.543 0 .668-.205 1.251-.634 1.697-.428.463-.994.754-1.714.874l-2.332-.103c-1.251-.411-1.954-1.337-2.108-2.794h-6.6c.103 2.263.925 4.063 2.503 5.383s3.634 2.091 6.205 2.297l2.315.034c1.834-.068 3.428-.463 4.765-1.183 1.355-.685 2.366-1.611 3.052-2.725a6.953 6.953 0 0 0 1.028-3.686c0-1.749-.428-3.103-1.285-4.114z"/><path d="M121.28 41.899c.07-.995.148-1.715.234-2.16.086-.429.211-.926.372-1.492l.185-.754c.056-.309.099-.669.129-1.08s.045-.926.045-1.526c0-.703-.015-1.251-.047-1.646s-.074-.651-.127-.771l-.185.189c-.087.394-.136 1.234-.148 2.537h-.531c.014-2.263.08-4.046.197-5.332.117-1.303.277-2.04.482-2.228h.185c.204.171.373.925.503 2.245.13 1.338.196 3.086.196 5.298 0 1.765-.034 3.154-.101 4.165-.069 1.012-.147 1.749-.237 2.212s-.21.926-.361 1.406l-.185.685a8.415 8.415 0 0 0-.142 1.029c-.031.394-.048.908-.048 1.543 0 .668.017 1.251.051 1.697.035.463.08.754.137.874l.187-.103c.1-.411.156-1.337.169-2.794h.528c-.009 2.263-.074 4.063-.2 5.383s-.291 2.091-.497 2.297l-.185.034c-.147-.068-.275-.463-.382-1.183-.108-.685-.189-1.611-.244-2.725a76.105 76.105 0 0 1-.082-3.686c0-1.749.034-3.103.103-4.114z"/><path d="M123.085 56.556h-2.332V24.704h2.332z"/></g><g><path d="M244.981 91.632V37.837a5.246 5.246 0 0 1 5.246-5.246h82.784a5.246 5.246 0 0 1 5.245 5.246v53.795a5.246 5.246 0 0 1-5.245 5.245h-82.784a5.235 5.235 0 0 1-5.246-5.245z" fill="#fff"/><g><path d="M333.01 98.506h-82.783c-3.788 0-6.874-3.086-6.874-6.874V37.837c0-3.789 3.086-6.874 6.874-6.874h82.784c3.788 0 6.874 3.085 6.874 6.874v53.795c0 3.788-3.086 6.874-6.874 6.874zm-82.8-65.83a5.165 5.165 0 0 0-5.16 5.161v53.795a5.165 5.165 0 0 0 5.16 5.16h82.784a5.165 5.165 0 0 0 5.16-5.16V37.837a5.165 5.165 0 0 0-5.16-5.16z" fill="#4A69FF"/></g><path d="M310.021 87.274h-11.177a.768.768 0 0 1-.771-.771V55.817c0-.429.342-.772.771-.772h11.177c.429 0 .772.343.772.772v30.686a.768.768 0 0 1-.772.771z" fill="#4A69FF"/><g fill="#fdc93a"><path d="M323.611 85.561h-12.634V45.807h12.634zm.943-41.451h-14.52a.768.768 0 0 0-.771.771v41.64c0 .429.343.772.771.772h14.52a.768.768 0 0 0 .772-.772v-41.64a.78.78 0 0 0-.772-.771zm-26.66 41.45h-9.292v-28.8h9.292zm.943-30.515h-11.178a.768.768 0 0 0-.771.772v30.686c0 .428.343.771.771.771h11.178a.768.768 0 0 0 .771-.771V55.817a.768.768 0 0 0-.771-.772z"/><path d="M286.524 85.564h-9.291V66.638h9.291zm.943-20.64H276.29a.768.768 0 0 0-.772.771v20.812c0 .428.343.771.772.771h11.177a.768.768 0 0 0 .771-.771V65.695a.768.768 0 0 0-.771-.771z"/></g><path d="M328.498 87.475h-63.43c-.48 0-.856-.377-.856-.857s.377-.857.857-.857h63.429c.48 0 .857.377.857.857s-.394.857-.857.857z" fill="#fdc93a"/></g></g></svg></g></svg>